# xmcd CD database file
#
# Track frame offsets:
#	150
#	16337
#	29507
#	48732
#	63945
#	78402
#	97575
#	114037
#	127577
#	145817
#	160737
#	177710
#	192325
#
# Disc length: 2889 seconds
#
# Revision: 5
# Processed by: cddbd v1.5.2PL0 Copyright (c) Steve Scherf et al.
# Submitted via: CDex 1.51
#
DISCID=9e0b470d
DTITLE=In Flames - Come Clarity
DYEAR=2006
DGENRE=Heavy Metal
TTITLE0=Take This Life
TTITLE1=Leeches
TTITLE2=Reflect The Storm
TTITLE3=Dead End
TTITLE4=Scream
TTITLE5=Come Clarity
TTITLE6=Vaccum
TTITLE7=Pacing Death's Trail
TTITLE8=Crawl Throught Knives
TTITLE9=Versus Terminus
TTITLE10=Our Infinite Struggle
TTITLE11=Vanishing Light
TTITLE12=Your Bedtime Story Is Scaring Everyone
EXTD=YEAR: 2006
EXTT0=
EXTT1=
EXTT2=
EXTT3=
EXTT4=
EXTT5=
EXTT6=
EXTT7=
EXTT8=
EXTT9=
EXTT10=
EXTT11=
EXTT12=
PLAYORDER=
